#N canvas 868 71 646 645 10;
#X obj 57 50 inlet;
#X obj 67 547 outlet;
#X obj 152 107 loadbang;
#X obj 142 176 f \$2;
#X obj 64 272 expr pow($f1 * $f2 \, $f3);
#X obj 96 177 f \$1;
#X text 55 27 Influence;
#X obj 190 221 expr pow($f1 \, $f2);
#X text 220 202 Max value;
#X text 153 19 Damp/Enhance;
#X obj 346 264 moses 0;
#X obj 73 352 expr $f1 * (1+$f2);
#X text 416 111 Flip Damp/Enh (+1 or-1);
#X obj 424 138 f \$3;
#X text 306 265 Damp;
#X obj 345 388 expr ($f2-$f1) * $f3 + $f1;
#X text 405 282 Enhance;
#X floatatom 373 438 5 0 0 0 - - -;
#X obj 174 46 inlet;
#X obj 57 110 float;
#X obj 174 68 t b f;
#X floatatom 360 204 5 0 0 0 - - -;
#X obj 346 179 *;
#X floatatom 382 160 5 0 0 0 - - -;
#X floatatom 94 384 5 0 0 0 - - -;
#X obj 336 465 bng 15 250 50 0 empty empty empty 17 7 0 10 -262144
-1 -1;
#X obj 83 410 bng 15 250 50 0 empty empty empty 17 7 0 10 -262144 -1
-1;
#X obj 73 458 spigot;
#X msg 124 424 1;
#X msg 159 424 0;
#X obj 186 505 spigot;
#X msg 218 424 1;
#X msg 252 426 0;
#X obj 89 491 bng 15 250 50 0 empty empty empty 17 7 0 10 -262144 -1
-1;
#X obj 205 540 bng 15 250 50 0 empty empty empty 17 7 0 10 -262144
-1 -1;
#X msg 223 151 0;
#X connect 0 0 19 0;
#X connect 2 0 3 0;
#X connect 2 0 5 0;
#X connect 2 0 13 0;
#X connect 2 0 35 0;
#X connect 3 0 4 2;
#X connect 3 0 7 1;
#X connect 4 0 11 0;
#X connect 4 0 15 0;
#X connect 5 0 4 1;
#X connect 5 0 7 0;
#X connect 7 0 15 1;
#X connect 10 0 11 1;
#X connect 10 0 28 0;
#X connect 10 0 32 0;
#X connect 10 1 15 2;
#X connect 10 1 29 0;
#X connect 10 1 31 0;
#X connect 11 0 24 0;
#X connect 11 0 26 0;
#X connect 11 0 27 0;
#X connect 13 0 23 0;
#X connect 15 0 17 0;
#X connect 15 0 25 0;
#X connect 15 0 30 0;
#X connect 18 0 20 0;
#X connect 19 0 4 0;
#X connect 20 0 19 0;
#X connect 20 1 22 0;
#X connect 22 0 10 0;
#X connect 22 0 21 0;
#X connect 23 0 22 1;
#X connect 27 0 1 0;
#X connect 27 0 33 0;
#X connect 28 0 27 1;
#X connect 29 0 27 1;
#X connect 30 0 1 0;
#X connect 30 0 34 0;
#X connect 31 0 30 1;
#X connect 32 0 30 1;
#X connect 35 0 22 0;
