#N canvas 86 2 788 715 10;
#X obj 46 350 dac~;
#X obj 49 75 hsl 128 15 220 1000 0 0 empty empty Frequency -2 -8 0
10 -262144 -1 -1 0 1;
#X floatatom 46 97 5 0 0 0 - - -;
#X obj 46 172 osc~;
#X obj 86 171 osc~;
#X obj 144 171 osc~;
#X obj 207 171 osc~;
#X obj 272 171 osc~;
#X obj 86 146 * 2;
#X obj 144 146 * 3;
#X obj 207 146 * 4;
#X obj 272 146 * 5;
#X floatatom 436 96 5 0 0 0 - - -;
#X obj 336 75 hsl 128 15 0 1 0 0 empty empty Incline_0_to_1 -2 -8 0
10 -262144 -1 -1 0 1;
#X floatatom 332 168 5 0 0 0 - - -;
#X floatatom 374 200 10 0 0 0 - - -;
#X floatatom 445 228 10 0 0 0 - - -;
#X floatatom 520 258 10 0 0 0 - - -;
#X obj 86 286 *~;
#X obj 144 286 *~;
#X obj 207 286 *~;
#X obj 272 286 *~;
#X text 43 34 Base frequency;
#X text 554 30 Damp/Enhance odd/even overtones.;
#X obj 579 83 hsl 128 15 -1 1 0 0 empty empty Damp/Enhance_-1_to_+1
-2 -8 0 10 -262144 -1 -1 0 1;
#X obj 520 239 overtone-influence 0.7 1.3 1;
#X floatatom 684 104 5 0 0 0 - - -;
#X obj 334 139 x-overtone-influence 1 1 -1;
#X obj 374 181 x-overtone-influence 0.9 1.1 1;
#X obj 445 209 x-overtone-influence 0.8 1.2 -1;
#X text 333 34 Influence of the overtones.;
#X floatatom 381 491 5 0 0 0 - - -;
#X obj 381 441 overtone-incline 0.7 1.3 1;
#X floatatom 359 351 5 0 0 0 - - -;
#X obj 347 330 hsl 128 15 0 1 0 0 empty empty Incline_0_to_1 -2 -8
0 10 -262144 -1 -1 6200 1;
#X obj 473 366 hsl 128 15 -1 1 0 0 empty empty Damp/Enhance_-1_to_+1
-2 -8 0 10 -262144 -1 -1 10800 1;
#X floatatom 578 387 5 0 0 0 - - -;
#X connect 1 0 2 0;
#X connect 2 0 3 0;
#X connect 2 0 8 0;
#X connect 2 0 9 0;
#X connect 2 0 10 0;
#X connect 2 0 11 0;
#X connect 3 0 0 0;
#X connect 4 0 18 0;
#X connect 5 0 19 0;
#X connect 6 0 20 0;
#X connect 7 0 21 0;
#X connect 8 0 4 0;
#X connect 9 0 5 0;
#X connect 10 0 6 0;
#X connect 11 0 7 0;
#X connect 13 0 12 0;
#X connect 13 0 25 0;
#X connect 14 0 18 1;
#X connect 15 0 19 1;
#X connect 16 0 20 1;
#X connect 17 0 21 1;
#X connect 18 0 0 0;
#X connect 19 0 0 0;
#X connect 20 0 0 0;
#X connect 21 0 0 0;
#X connect 24 0 26 0;
#X connect 24 0 25 1;
#X connect 25 0 17 0;
#X connect 27 0 14 0;
#X connect 28 0 15 0;
#X connect 29 0 16 0;
#X connect 32 0 31 0;
#X connect 34 0 33 0;
#X connect 34 0 32 0;
#X connect 35 0 36 0;
#X connect 35 0 32 1;
