#N canvas 873 24 646 697 10;
#X obj 54 33 inlet;
#X obj 139 33 inlet;
#X obj 52 110 f 0;
#X obj 139 112 f 0;
#X obj 113 58 bng 15 250 50 0 empty empty empty 17 7 0 10 -262144 -1
-1;
#X obj 64 58 bng 15 250 50 0 empty empty empty 17 7 0 10 -262144 -1
-1;
#X obj 165 145 moses 0;
#X msg 164 180 symbol neg;
#X msg 244 180 symbol pos;
#X obj 52 192 bng 15 250 50 0 empty empty empty 17 7 0 10 -262144 -1
-1;
#X obj 52 280 route neg pos;
#X obj 52 227 pack symbol 0 0;
#X obj 355 -17 loadbang;
#X obj 418 275 f \$1;
#X obj 433 397 expr pow($f1 \, $f2);
#X text 445 378 Max value;
#X obj 277 41 f \$3;
#X floatatom 230 114 5 0 0 0 - - -;
#X obj 216 89 *;
#X floatatom 277 64 5 0 0 0 - - -;
#X obj 63 479 expr $f1 * (1+$f2);
#X obj 52 381 unpack f f;
#X obj 63 605 outlet;
#X floatatom 87 508 5 0 0 0 - - -;
#X obj 54 430 expr pow($f1 * $f2 \, $f3);
#X text 166 447 Basic value;
#X text 19 348 -ve;
#X obj 331 423 unpack f f;
#X obj 331 522 expr ($f2-$f1) * $f3 + $f1;
#X obj 335 452 expr pow($f1 * $f2 \, $f3);
#X text 447 469 Basic value;
#X floatatom 348 569 5 0 0 0 - - -;
#X obj 85 538 bng 15 250 50 0 empty empty empty 17 7 0 10 -262144 -1
-1;
#X obj 326 572 bng 15 250 50 0 empty empty empty 17 7 0 10 -262144
-1 -1;
#X text 141 332 +ve;
#X obj 464 274 f \$2;
#X obj 181 301 print other;
#X obj 52 249 list trim;
#X floatatom 19 452 5 0 0 0 - - -;
#X floatatom 289 481 5 0 0 0 - - -;
#X floatatom 510 423 5 0 0 0 - - -;
#X floatatom 430 315 5 0 0 0 - - -;
#X floatatom 506 317 5 0 0 0 - - -;
#X obj 355 5 t b b b;
#X text 223 5 Flip Damp/Enh (+1 or-1);
#X text 161 233 Route both values depending on whether the second value
is -ve or +ve;
#X connect 0 0 2 0;
#X connect 0 0 5 0;
#X connect 1 0 4 0;
#X connect 1 0 18 0;
#X connect 2 0 9 0;
#X connect 2 0 11 1;
#X connect 3 0 6 0;
#X connect 3 0 9 0;
#X connect 3 0 11 2;
#X connect 4 0 2 0;
#X connect 5 0 3 0;
#X connect 6 0 7 0;
#X connect 6 1 8 0;
#X connect 7 0 11 0;
#X connect 8 0 11 0;
#X connect 9 0 11 0;
#X connect 10 0 21 0;
#X connect 10 1 27 0;
#X connect 10 2 36 0;
#X connect 11 0 37 0;
#X connect 12 0 43 0;
#X connect 13 0 14 0;
#X connect 13 0 24 1;
#X connect 13 0 29 1;
#X connect 13 0 41 0;
#X connect 14 0 28 1;
#X connect 14 0 40 0;
#X connect 16 0 19 0;
#X connect 18 0 17 0;
#X connect 18 0 3 0;
#X connect 19 0 18 1;
#X connect 20 0 22 0;
#X connect 20 0 23 0;
#X connect 20 0 32 0;
#X connect 21 0 24 0;
#X connect 21 1 20 1;
#X connect 24 0 20 0;
#X connect 24 0 38 0;
#X connect 27 0 29 0;
#X connect 27 1 28 2;
#X connect 28 0 31 0;
#X connect 28 0 22 0;
#X connect 28 0 33 0;
#X connect 29 0 28 0;
#X connect 29 0 39 0;
#X connect 35 0 14 1;
#X connect 35 0 24 2;
#X connect 35 0 29 2;
#X connect 35 0 42 0;
#X connect 37 0 10 0;
#X connect 43 0 16 0;
#X connect 43 1 13 0;
#X connect 43 2 35 0;
